<mxfile host="Electron" agent="Mozilla/5.0 (Windows NT 10.0; Win64; x64) AppleWebKit/537.36 (KHTML, like Gecko) draw.io/24.7.5 Chrome/126.0.6478.183 Electron/31.3.0 Safari/537.36" version="24.7.5" pages="5">
  <diagram name="第 1 页" id="Gh10I3yitNYJsjz1CdKF">
    <mxGraphModel dx="800" dy="593" grid="1" gridSize="10" guides="1" tooltips="1" connect="1" arrows="1" fold="1" page="1" pageScale="1" pageWidth="827" pageHeight="1169" math="0" shadow="0">
      <root>
        <mxCell id="0" />
        <mxCell id="1" parent="0" />
        <mxCell id="7jHKsKq1_kqI460txfm3-7" style="edgeStyle=orthogonalEdgeStyle;rounded=0;orthogonalLoop=1;jettySize=auto;html=1;fontSize=18;" edge="1" parent="1" source="7jHKsKq1_kqI460txfm3-1" target="7jHKsKq1_kqI460txfm3-2">
          <mxGeometry relative="1" as="geometry" />
        </mxCell>
        <mxCell id="7jHKsKq1_kqI460txfm3-1" value="&lt;div&gt;@Service&lt;br&gt;&lt;/div&gt;CouponTaskServiceImpl" style="text;html=1;align=center;verticalAlign=middle;resizable=0;points=[];autosize=1;strokeColor=none;fillColor=none;fontSize=18;" vertex="1" parent="1">
          <mxGeometry y="210" width="220" height="60" as="geometry" />
        </mxCell>
        <mxCell id="7jHKsKq1_kqI460txfm3-8" style="edgeStyle=orthogonalEdgeStyle;rounded=0;orthogonalLoop=1;jettySize=auto;html=1;fontSize=18;" edge="1" parent="1" source="7jHKsKq1_kqI460txfm3-2" target="7jHKsKq1_kqI460txfm3-3">
          <mxGeometry relative="1" as="geometry" />
        </mxCell>
        <mxCell id="7jHKsKq1_kqI460txfm3-2" value="&lt;div&gt;@Service&lt;br&gt;&lt;/div&gt;class RefreshCouponTaskDelayQueueRunner&amp;nbsp;implements CommandLineRunner" style="text;html=1;align=center;verticalAlign=middle;resizable=0;points=[];autosize=1;strokeColor=none;fillColor=none;fontSize=18;" vertex="1" parent="1">
          <mxGeometry x="130" y="330" width="670" height="60" as="geometry" />
        </mxCell>
        <mxCell id="7jHKsKq1_kqI460txfm3-11" style="edgeStyle=orthogonalEdgeStyle;rounded=0;orthogonalLoop=1;jettySize=auto;html=1;fontSize=18;" edge="1" parent="1" source="7jHKsKq1_kqI460txfm3-3" target="7jHKsKq1_kqI460txfm3-6">
          <mxGeometry relative="1" as="geometry">
            <Array as="points">
              <mxPoint x="250" y="400" />
              <mxPoint x="20" y="400" />
            </Array>
          </mxGeometry>
        </mxCell>
        <mxCell id="7jHKsKq1_kqI460txfm3-3" value="refreshCouponTaskSendNum" style="text;whiteSpace=wrap;fontSize=18;" vertex="1" parent="1">
          <mxGeometry x="205" y="450" width="270" height="50" as="geometry" />
        </mxCell>
        <mxCell id="7jHKsKq1_kqI460txfm3-6" value="couponTaskMapper" style="text;whiteSpace=wrap;fontSize=18;" vertex="1" parent="1">
          <mxGeometry x="15" y="300" width="190" height="50" as="geometry" />
        </mxCell>
        <mxCell id="7jHKsKq1_kqI460txfm3-12" value="不能在静态内部类启动RefreshCouponTaskDelayQueueRunner&lt;div&gt;解决方案：&lt;span style=&quot;background-color: initial;&quot;&gt;@PostConstruct&lt;/span&gt;&lt;/div&gt;&lt;div&gt;&amp;nbsp; &amp;nbsp; public void init() {&lt;/div&gt;&lt;div&gt;&amp;nbsp; &amp;nbsp; &amp;nbsp; &amp;nbsp; new RefreshCouponTaskDelayQueueRunner(this, couponTaskMapper, redissonClient).run();&lt;/div&gt;&lt;div&gt;&amp;nbsp; &amp;nbsp; }&lt;/div&gt;&lt;div&gt;static class RefreshCouponTaskDelayQueueRunner&lt;br&gt;&lt;/div&gt;&lt;div&gt;couponTaskService.refreshCouponTaskSendNum(delayJsonObject);&lt;br&gt;&lt;/div&gt;" style="text;html=1;align=center;verticalAlign=middle;resizable=0;points=[];autosize=1;strokeColor=none;fillColor=none;fontSize=18;" vertex="1" parent="1">
          <mxGeometry x="100" y="30" width="800" height="160" as="geometry" />
        </mxCell>
      </root>
    </mxGraphModel>
  </diagram>
  <diagram id="WRBG2tsjxCG-eHJn6zt-" name="xxl-job">
    <mxGraphModel dx="908" dy="582" grid="1" gridSize="10" guides="1" tooltips="1" connect="1" arrows="1" fold="1" page="1" pageScale="1" pageWidth="827" pageHeight="1169" math="0" shadow="0">
      <root>
        <mxCell id="0" />
        <mxCell id="1" parent="0" />
        <mxCell id="24sDXk51h5O9LctdPvGT-1" value="" style="shape=image;verticalLabelPosition=bottom;labelBackgroundColor=default;verticalAlign=top;aspect=fixed;imageAspect=0;image=https://oss.open8gu.com/image-20240825173306175.png;" parent="1" vertex="1">
          <mxGeometry x="30" y="370" width="722.04" height="540" as="geometry" />
        </mxCell>
        <mxCell id="24sDXk51h5O9LctdPvGT-2" value="execute() 这是 XXL-Job 调度任务的入口方法。当定时任务触发时，XXL-Job 框架会调用此方法。&#xa;&#xa;&#xa;首先方法会初始化变量，initId 用于标识已经处理过的任务的最大 ID，now 用于记录当前时间。接下来会执行 while 循环，逻辑如下所示：&#xa;&#xa;&#xa;调用 fetchPendingTasks(initId, now) 方法获取符合条件的待执行任务列表。&#xa;&#xa;&#xa;如果 couponTaskDOList 为空，意味着没有更多的任务需要处理，循环终止。&#xa;&#xa;&#xa;遍历 couponTaskDOList，对每个任务调用 distributeCoupon(each) 方法，将任务修改状态变更为执行中，并发送到消息队列进行异步处理。&#xa;&#xa;&#xa;检查当前获取的任务列表大小，如果小于 MAX_LIMIT，表示已经是最后一批数据，循环终止。&#xa;&#xa;&#xa;更新 initId 为当前批次中最大的任务 ID，以确保下一次循环获取到新的任务。" style="text;whiteSpace=wrap;fontSize=18;" parent="1" vertex="1">
          <mxGeometry x="770" y="370" width="560" height="630" as="geometry" />
        </mxCell>
        <mxCell id="24sDXk51h5O9LctdPvGT-3" value="定时执行优惠券分发任务" style="text;whiteSpace=wrap;fontSize=18;" parent="1" vertex="1">
          <mxGeometry x="10" y="10" width="250" height="50" as="geometry" />
        </mxCell>
        <mxCell id="24sDXk51h5O9LctdPvGT-4" value="类似于不是每个项目都有RocketMQ5.x的，要结合公司实际场景来。比如定时任务处理这种还是主流的" style="text;whiteSpace=wrap;fontSize=18;" parent="1" vertex="1">
          <mxGeometry x="440" y="150" width="560" height="70" as="geometry" />
        </mxCell>
        <mxCell id="24sDXk51h5O9LctdPvGT-5" value="数据量少也可以可以一次性读取。一般从规范上来说，都是分批读取稳一点" style="text;whiteSpace=wrap;fontSize=18;" parent="1" vertex="1">
          <mxGeometry x="440" y="210" width="560" height="70" as="geometry" />
        </mxCell>
        <mxCell id="24sDXk51h5O9LctdPvGT-6" value="优惠券分发任务分为两种类型：立即执行和定时执行。对于立即执行的任务，我们直接通过消息队列触发发送流程；而定时执行的任务则由定时任务监控系统扫描，找到到达执行时间的任务，然后通过 XXL-Job 分布式定时框架进行处理。" style="text;whiteSpace=wrap;fontSize=18;" parent="1" vertex="1">
          <mxGeometry x="10" y="50" width="560" height="110" as="geometry" />
        </mxCell>
      </root>
    </mxGraphModel>
  </diagram>
  <diagram id="JVuBckBPe9Q8lj32gRY3" name="xxl-job业务">
    <mxGraphModel dx="802" dy="470" grid="1" gridSize="10" guides="1" tooltips="1" connect="1" arrows="1" fold="1" page="1" pageScale="1" pageWidth="827" pageHeight="1169" math="0" shadow="0">
      <root>
        <mxCell id="0" />
        <mxCell id="1" parent="0" />
        <mxCell id="rMkGo_7P-2chYLW-jhDS-3" value="" style="edgeStyle=orthogonalEdgeStyle;rounded=0;orthogonalLoop=1;jettySize=auto;html=1;fontSize=18;" parent="1" source="rMkGo_7P-2chYLW-jhDS-1" target="rMkGo_7P-2chYLW-jhDS-2" edge="1">
          <mxGeometry relative="1" as="geometry" />
        </mxCell>
        <mxCell id="rMkGo_7P-2chYLW-jhDS-1" value="定时任务找&#xa;CouponTask&#xa;发送时间以内的&#xa;待处理&#xa;任务ID当前处理完ID&#xa;最多返回100条记录" style="text;whiteSpace=wrap;fontSize=18;" parent="1" vertex="1">
          <mxGeometry x="40" y="50" width="190" height="150" as="geometry" />
        </mxCell>
        <mxCell id="rMkGo_7P-2chYLW-jhDS-7" value="" style="edgeStyle=orthogonalEdgeStyle;rounded=0;orthogonalLoop=1;jettySize=auto;html=1;fontSize=18;" parent="1" source="rMkGo_7P-2chYLW-jhDS-2" target="rMkGo_7P-2chYLW-jhDS-4" edge="1">
          <mxGeometry relative="1" as="geometry" />
        </mxCell>
        <mxCell id="rMkGo_7P-2chYLW-jhDS-2" value="找到后for循环分发&lt;div&gt;couponTask&lt;br&gt;&lt;/div&gt;&lt;div&gt;正在处理&lt;/div&gt;&lt;div&gt;根据id让消息队列处理&lt;/div&gt;" style="text;html=1;align=center;verticalAlign=middle;resizable=0;points=[];autosize=1;strokeColor=none;fillColor=none;fontSize=18;" parent="1" vertex="1">
          <mxGeometry x="275" y="75" width="200" height="100" as="geometry" />
        </mxCell>
        <mxCell id="rMkGo_7P-2chYLW-jhDS-6" style="edgeStyle=orthogonalEdgeStyle;rounded=0;orthogonalLoop=1;jettySize=auto;html=1;fontSize=18;" parent="1" source="rMkGo_7P-2chYLW-jhDS-4" target="rMkGo_7P-2chYLW-jhDS-5" edge="1">
          <mxGeometry relative="1" as="geometry" />
        </mxCell>
        <mxCell id="rMkGo_7P-2chYLW-jhDS-4" value="消息队列处理分发加强&lt;div&gt;给只有id的加强json属性&lt;/div&gt;&lt;div&gt;事件名：优惠券推送执行&lt;/div&gt;&lt;div&gt;消息key：id&lt;/div&gt;&lt;div&gt;topic：xx-task-execute_topic&lt;/div&gt;&lt;div&gt;超时时间：2秒&lt;/div&gt;" style="text;html=1;align=center;verticalAlign=middle;resizable=0;points=[];autosize=1;strokeColor=none;fillColor=none;fontSize=18;" parent="1" vertex="1">
          <mxGeometry x="250" y="240" width="250" height="140" as="geometry" />
        </mxCell>
        <mxCell id="rMkGo_7P-2chYLW-jhDS-5" value="消息队列处理分发&lt;div&gt;根据延迟时间&lt;/div&gt;&lt;div&gt;发普通消息或者延迟消息&lt;/div&gt;" style="text;html=1;align=center;verticalAlign=middle;resizable=0;points=[];autosize=1;strokeColor=none;fillColor=none;fontSize=18;" parent="1" vertex="1">
          <mxGeometry x="580" y="270" width="220" height="80" as="geometry" />
        </mxCell>
        <mxCell id="QctEr8LUx3R2yoelCO73-1" value="消费者&lt;div&gt;修改状态为结束&lt;/div&gt;" style="text;html=1;align=center;verticalAlign=middle;resizable=0;points=[];autosize=1;strokeColor=none;fillColor=none;fontSize=18;" parent="1" vertex="1">
          <mxGeometry x="305" y="433" width="150" height="60" as="geometry" />
        </mxCell>
      </root>
    </mxGraphModel>
  </diagram>
  <diagram id="zmRgEdAkQoK_J6fCJCvQ" name="excel业务">
    <mxGraphModel dx="908" dy="582" grid="1" gridSize="10" guides="1" tooltips="1" connect="1" arrows="1" fold="1" page="1" pageScale="1" pageWidth="827" pageHeight="1169" math="0" shadow="0">
      <root>
        <mxCell id="0" />
        <mxCell id="1" parent="0" />
        <mxCell id="Bdt4vphdsgBfNzeOl4_E-2" value="" style="edgeStyle=orthogonalEdgeStyle;rounded=0;orthogonalLoop=1;jettySize=auto;html=1;fontSize=18;" edge="1" parent="1" source="1xpNkNWzbYq9GB-TjvsJ-1" target="hdfswMINo0O8WApvulBy-2">
          <mxGeometry relative="1" as="geometry">
            <mxPoint x="300" y="230" as="targetPoint" />
          </mxGeometry>
        </mxCell>
        <mxCell id="Bdt4vphdsgBfNzeOl4_E-3" value="1" style="edgeLabel;html=1;align=center;verticalAlign=middle;resizable=0;points=[];fontSize=18;" vertex="1" connectable="0" parent="Bdt4vphdsgBfNzeOl4_E-2">
          <mxGeometry x="0.184" y="-3" relative="1" as="geometry">
            <mxPoint as="offset" />
          </mxGeometry>
        </mxCell>
        <mxCell id="Bdt4vphdsgBfNzeOl4_E-5" style="edgeStyle=orthogonalEdgeStyle;rounded=0;orthogonalLoop=1;jettySize=auto;html=1;fontSize=18;" edge="1" parent="1" source="1xpNkNWzbYq9GB-TjvsJ-1" target="hdfswMINo0O8WApvulBy-3">
          <mxGeometry relative="1" as="geometry">
            <mxPoint x="279" y="350" as="targetPoint" />
          </mxGeometry>
        </mxCell>
        <mxCell id="Bdt4vphdsgBfNzeOl4_E-6" value="2" style="edgeLabel;html=1;align=center;verticalAlign=middle;resizable=0;points=[];fontSize=18;" vertex="1" connectable="0" parent="Bdt4vphdsgBfNzeOl4_E-5">
          <mxGeometry x="0.1025" y="4" relative="1" as="geometry">
            <mxPoint as="offset" />
          </mxGeometry>
        </mxCell>
        <mxCell id="1xpNkNWzbYq9GB-TjvsJ-1" value="记录优惠券推送&#xa;couponTask&#xa;雪花算法生成批次id&#xa;用户上下文操作id&#xa;用户上下文商店编号&#xa;等处理或者在处理&#xa;插到数据库" style="text;whiteSpace=wrap;fontSize=18;" vertex="1" parent="1">
          <mxGeometry x="40" y="210" width="170" height="160" as="geometry" />
        </mxCell>
        <mxCell id="hdfswMINo0O8WApvulBy-1" value="线程池CommandLineRunner&#xa;newSingleThreadExecutor&#xa;延迟队列take元素（阻塞）&#xa;获取当前优惠券推送记录&#xa;如果发送条数为null&#xa;修改这个记录的发送条数" style="text;whiteSpace=wrap;fontSize=18;" vertex="1" parent="1">
          <mxGeometry x="40" y="10" width="250" height="150" as="geometry" />
        </mxCell>
        <mxCell id="hdfswMINo0O8WApvulBy-2" value="线程池推送任务记录&#xa;couponTask&#xa;修改发送数量" style="text;whiteSpace=wrap;fontSize=18;" vertex="1" parent="1">
          <mxGeometry x="314" y="190" width="200" height="90" as="geometry" />
        </mxCell>
        <mxCell id="hdfswMINo0O8WApvulBy-3" value="延迟队列兜底&lt;div&gt;redissonClient.getBlockingDeque&lt;br&gt;&lt;/div&gt;&lt;div&gt;再redissonClient.getDelayedQueue&lt;/div&gt;&lt;div&gt;延迟队列发送延迟消息时间20秒&lt;/div&gt;&lt;div&gt;后续让一直运行的线程池来处理&lt;/div&gt;" style="text;html=1;align=center;verticalAlign=middle;resizable=0;points=[];autosize=1;strokeColor=none;fillColor=none;fontSize=18;" vertex="1" parent="1">
          <mxGeometry x="300" y="280" width="310" height="120" as="geometry" />
        </mxCell>
      </root>
    </mxGraphModel>
  </diagram>
  <diagram id="8QG46T9rDjvNUuTtNobL" name="优惠卷业务">
    <mxGraphModel dx="884" dy="527" grid="1" gridSize="10" guides="1" tooltips="1" connect="1" arrows="1" fold="1" page="1" pageScale="1" pageWidth="827" pageHeight="1169" math="0" shadow="0">
      <root>
        <mxCell id="0" />
        <mxCell id="1" parent="0" />
        <mxCell id="25Nj9vwf29pDX1koSbyx-1" value="优惠券模板查询" style="text;whiteSpace=wrap;fontSize=18;fillColor=#ffe6cc;strokeColor=#d79b00;" parent="1" vertex="1">
          <mxGeometry x="20" y="10" width="140" height="40" as="geometry" />
        </mxCell>
        <mxCell id="25Nj9vwf29pDX1koSbyx-2" value="双重判定锁优化大量请求无意义查询数据库&#xa;CouponTemplate&#xa;商店编号&#xa;优惠卷id&#xa;激活状态&#xa;lua脚本 redis 设置过期时间&#xa;最终序列化成 JSON 字符串放入 Redis 缓存&#xa;&#xa;" style="text;whiteSpace=wrap;fontSize=18;" parent="1" vertex="1">
          <mxGeometry x="20" y="60" width="390" height="180" as="geometry" />
        </mxCell>
        <mxCell id="OBdd4J_mL7rvFc--q2TB-2" value="优惠券分发逻辑" style="text;whiteSpace=wrap;fontSize=18;fillColor=#ffe6cc;strokeColor=#d79b00;" parent="1" vertex="1">
          <mxGeometry x="20" y="260" width="150" height="40" as="geometry" />
        </mxCell>
        <mxCell id="6PXqwwWs029xVWxz3cuo-2" value="ReadExcelDistributionListener&#xa;userCouponDO&#xa;优惠卷模板id&#xa;用户id&#xa;接收时间现在&#xa;收到次数1&#xa;验证开始时间现在&#xa;验证结束时间到期时&#xa;来源platform&#xa;状态有效&#xa;创建更新时间现在&#xa;删除逻辑否&#xa;添加优惠券到用户已领取的 Redis 优惠券列表中&#xa;userCouponItemCacheKey&#xa;.append(couponTemplateDO.getId())&#xa;.append(userCouponDO.getId())&#xa; 确保所有用户都已经接到优惠券后，设置优惠券推送任务完成时间&#xa;couponTaskDO&#xa;优惠卷任务id&#xa;状态成功&#xa;完成时间现在&#xa;" style="text;whiteSpace=wrap;fontSize=18;" parent="1" vertex="1">
          <mxGeometry x="20" y="310" width="290" height="510" as="geometry" />
        </mxCell>
        <mxCell id="QuQV1ZZWblcAojROQte3-1" value="创建优惠券模板" style="text;whiteSpace=wrap;fontSize=18;fillColor=#ffe6cc;strokeColor=#d79b00;" parent="1" vertex="1">
          <mxGeometry x="15" y="850" width="160" height="50" as="geometry" />
        </mxCell>
        <mxCell id="QuQV1ZZWblcAojROQte3-2" value="{&#xa;  &quot;name&quot;: &quot;用户下单满10减3特大优惠&quot;,&#xa;  &quot;source&quot;: 0,&#xa;  &quot;target&quot;: 1,&#xa;  &quot;goods&quot;: &quot;&quot;,&#xa;  &quot;type&quot;: 0,&#xa;  &quot;validStartTime&quot;: &quot;2024-07-08 12:00:00&quot;,&#xa;  &quot;validEndTime&quot;: &quot;2024-08-30 23:59:59&quot;,&#xa;  &quot;stock&quot;: 20000,&#xa;  &quot;receiveRule&quot;: &quot;{\&quot;limitPerPerson\&quot;:10,\&quot;usageInstructions\&quot;:\&quot;3\&quot;}&quot;,&#xa;  &quot;consumeRule&quot;: &quot;{\&quot;termsOfUse\&quot;:10,\&quot;maximumDiscountAmount\&quot;:3,\&quot;explanationOfUnmetConditions\&quot;:\&quot;3\&quot;,\&quot;validityPeriod\&quot;:\&quot;48\&quot;}&quot;&#xa;}" style="text;whiteSpace=wrap;fontSize=18;" parent="1" vertex="1">
          <mxGeometry x="15" y="900" width="560" height="330" as="geometry" />
        </mxCell>
        <mxCell id="jhRDj6lHEgU0XwSdq2Fk-1" value="分发失败记录生成 Excel" style="text;whiteSpace=wrap;fontSize=18;fillColor=#ffe6cc;strokeColor=#d79b00;" vertex="1" parent="1">
          <mxGeometry x="340" y="260" width="210" height="40" as="geometry" />
        </mxCell>
        <mxCell id="jhRDj6lHEgU0XwSdq2Fk-2" value="将分发失败数据以书签记录的形式读取到，然后封装为新的失败 Excel，并将地址保存到分发任务记录中。&#xa;根据getCouponTaskBatchId()查出来&#xa;然后存本地文件" style="text;whiteSpace=wrap;fontSize=18;" vertex="1" parent="1">
          <mxGeometry x="340" y="300" width="360" height="130" as="geometry" />
        </mxCell>
      </root>
    </mxGraphModel>
  </diagram>
</mxfile>
